# xmcd
#
# Track frame offsets:
#	150
#	14311
#	27346
#	36089
#	45967
#	59455
#	70765
#	81180
#	101092
#	114086
#	128060
#	147889
#	157239
#	169343
#
# Disc length: 2409 seconds
# Revision: 0
# Processed by: cddbd v1.5.2PL0 Copyright (c) Steve Scherf et al.
# Submitted via: dBpowerAMP V12.0
#
DISCID=b609670e
DTITLE=Audrey Auld - Tonk
DYEAR=2013
DGENRE=Country
TTITLE0=Bound For Glory
TTITLE1=Broken Hearted Woman
TTITLE2=Drinking Problem
TTITLE3=Kiss Me
TTITLE4=Crying The Blues
TTITLE5=Nashville #1
TTITLE6=Nashville #2
TTITLE7=Siren Song
TTITLE8=Your Wife
TTITLE9=Lonely Town
TTITLE10=Sweet Alcohol
TTITLE11=Rack Off
TTITLE12=Yes Best Left
TTITLE13=Bury Me At Walmart
EXTD=
EXTT0=
EXTT1=
EXTT2=
EXTT3=
EXTT4=
EXTT5=
EXTT6=
EXTT7=
EXTT8=
EXTT9=
EXTT10=
EXTT11=
EXTT12=
EXTT13=
PLAYORDER=
